<?xml version="1.0" encoding="UTF-8" standalone="no"?>
<!-- Created with Inkscape (http://www.inkscape.org/) -->

<svg
   width="193.80923mm"
   height="34.97123mm"
   viewBox="0 0 193.80923 34.97123"
   version="1.1"
   id="svg5"
   xml:space="preserve"
   xmlns:xlink="http://www.w3.org/1999/xlink"
   xmlns="http://www.w3.org/2000/svg"
   xmlns:svg="http://www.w3.org/2000/svg"><defs
     id="defs2"><color-profile
       name="Agfa-:-Swop-Standard"
       xlink:href="../../../WINDOWS/system32/spool/drivers/color/RSWOP.icm"
       id="color-profile10172" /></defs><g
     id="layer4"
     transform="translate(-0.12083076,-0.62749324)"><rect
       style="fill:#ffffff;stroke:#ffffff;stroke-width:0.226507;paint-order:fill markers stroke"
       id="rect9311"
       width="193.58273"
       height="34.744724"
       x="0.23408426"
       y="0.74074674"
       rx="1.1801841"
       ry="2.2197623" /></g><g
     id="g258"
     transform="matrix(0.35277776,0,0,0.35277778,5.8198383,-42.224618)"><g
       id="g260"><path
         d="m 138.719,209.461 c -14.946,-2.531 -26.34,-7.949 -37.817,-17.984 -2.886,-2.528 -6.187,-5.094 -7.332,-5.707 -2.621,-1.399 -50.55,-4.286 -66.433,-3.747 C 5.488,182.75 6.633,183.637 6.512,167.07 6.418,154.477 6.547,153.035 8.695,152.957 c 3.977,-1.375 10.332,-2.172 14.2,-1.305 2.269,0.508 4.714,0.75 5.441,0.543 0.723,-0.211 14.816,-0.785 31.316,-1.277 34.254,-1.02 32.856,-0.75 40.875,-7.879 18.254,-16.219 30.266,-19.301 73.813,-18.922 26.183,0.227 26.183,0.227 39.148,36.227 19.684,54.66 22.473,49.894 -29.148,49.785 -23.203,-0.047 -43.731,-0.348 -45.621,-0.668 z"
         style="fill:#800000;fill-opacity:1;fill-rule:nonzero;stroke:#800000;stroke-width:0.749999;stroke-linecap:butt;stroke-linejoin:miter;stroke-miterlimit:4;stroke-dasharray:none;stroke-opacity:1"
         id="path262" /></g><text
       xml:space="preserve"
       transform="matrix(0.97541693,0,0,1,118.57674,182.54255)"
       style="font-variant:normal;font-weight:normal;font-size:46.9002px;font-family:Higuen;-inkscape-font-specification:Higuen-Regular;writing-mode:lr-tb;fill:#000000;fill-opacity:1;fill-rule:nonzero;stroke:none"
       id="text266"><tspan
         x="0"
         y="0"
         id="tspan264">B</tspan></text><g
       id="g268"
       transform="scale(0.975417,1)"><path
         d="m 121.567,182.543 h 17.492 c 5.254,0 8.826,-3.328 8.826,-8.625 0,-5.266 -3.572,-8.641 -8.265,-8.781 3.892,-1.688 7.833,-3.938 7.833,-8.672 0,-4.594 -4.597,-6 -8.394,-6 h -17.492 v 0.422 c 2.018,-0.094 2.995,1.265 2.995,6.234 v 18.813 c 0,4.968 -0.977,6.281 -2.995,6.187 z m 7.464,-11.297 c 1.346,-1.656 3.701,-3.297 5.719,-4 3.989,-1.406 7.689,0.656 8.49,4.984 0.833,4.266 -1.554,9.469 -6.904,9.469 h -7.305 z m 0,-19.937 h 6.52 c 3.284,0 7.401,0.984 7.401,4.968 0,3.235 -2.195,5.391 -4.646,7.172 -3.043,2.203 -6.84,4.078 -9.275,6.516 z"
         style="fill:none;stroke:#000000;stroke-width:0.711994;stroke-linecap:butt;stroke-linejoin:miter;stroke-miterlimit:4;stroke-dasharray:none;stroke-opacity:1"
         id="path270" /></g><text
       xml:space="preserve"
       transform="matrix(0.97541693,0,0,1,144.42394,182.54255)"
       style="font-variant:normal;font-weight:normal;font-size:46.9002px;font-family:Higuen;-inkscape-font-specification:Higuen-Regular;writing-mode:lr-tb;fill:#000000;fill-opacity:1;fill-rule:nonzero;stroke:none"
       id="text274"><tspan
         x="0"
         y="0"
         id="tspan272">A</tspan></text><g
       id="g276"
       transform="scale(0.975417,1)"><path
         d="m 166.071,150.465 h -4.726 l -10.412,29.64 c -0.481,1.313 -1.362,2.11 -2.867,2.063 v 0.375 c 2.21,0 5.622,0 7.929,0 v -0.375 c -1.506,0.047 -2.387,-0.328 -2.867,-1.688 -0.096,-0.328 -0.225,-0.703 -0.321,-1.031 -0.288,-0.797 -0.24,-1.5 0,-2.297 l 0.977,-2.625 c 1.042,-2.953 4.838,-1.359 6.664,-0.703 3.749,1.219 6.424,0.516 8.074,-2.953 l 3.187,9.047 c 0.513,1.594 -0.24,2.297 -1.826,2.25 v 0.375 h 9.467 v -0.375 c -1.682,0.047 -2.483,-0.797 -2.947,-2.25 z m 2.162,19.453 c -1.73,1.891 -4.132,0.703 -6.279,0 -3.108,-1.031 -5.446,-0.703 -7.08,1.422 l 6.936,-19.656 z"
         style="fill:none;stroke:#000000;stroke-width:0.711994;stroke-linecap:butt;stroke-linejoin:miter;stroke-miterlimit:4;stroke-dasharray:none;stroke-opacity:1"
         id="path278" /></g><text
       xml:space="preserve"
       transform="matrix(0.97541693,0,0,1,176.30976,182.54255)"
       style="font-variant:normal;font-weight:normal;font-size:46.9002px;font-family:Higuen;-inkscape-font-specification:Higuen-Regular;writing-mode:lr-tb;fill:#000000;fill-opacity:1;fill-rule:nonzero;stroke:none"
       id="text282"><tspan
         x="0"
         y="0"
         id="tspan280">R</tspan></text><g
       id="g284"
       transform="scale(0.975417,1)"><path
         d="m 188.217,175.934 v -6.204 c 0.977,-1.125 2.947,-2.765 4.725,-3.609 2.868,-1.359 4.373,-0.141 5.351,2.672 1.169,3.203 2.066,7.75 3.748,10.844 0.897,1.687 2.259,2.906 4.549,2.906 1.362,0 2.724,-0.563 3.38,-1.922 l -0.32,-0.281 c -0.945,0.797 -2.018,0.187 -2.675,-0.563 -1.698,-1.828 -3.62,-9.109 -4.501,-11.734 -0.705,-2.063 -2.211,-3.422 -4.886,-3.703 4.405,-1.547 9.05,-3.235 9.05,-7.875 0,-4.594 -4.597,-6 -8.393,-6 h -17.493 v 0.422 c 2.018,-0.094 2.996,1.265 2.996,6.234 v 18.813 c 0,4.968 -0.978,6.281 -2.996,6.187 v 0.422 h 10.46 v -0.422 c -2.018,0.094 -2.995,-1.219 -2.995,-6.187 z m 0,-24.625 h 6.519 c 3.284,0 7.449,0.796 7.401,4.968 0,4.219 -6.52,6.938 -9.563,8.953 -1.65,1.032 -3.14,2.063 -4.357,3.282 z"
         style="fill:none;stroke:#000000;stroke-width:0.711994;stroke-linecap:butt;stroke-linejoin:miter;stroke-miterlimit:4;stroke-dasharray:none;stroke-opacity:1"
         id="path286" /></g><g
       id="g288"><path
         d="m 14.887,151.027 h 7.476 c 1.84,0 3.325,3.868 3.325,8.672 v 14.742 c 0,4.805 -1.485,8.672 -3.325,8.672 h -7.476 c -1.84,0 -3.324,-3.867 -3.324,-8.672 v -14.742 c 0,-4.804 1.484,-8.672 3.324,-8.672 z"
         style="fill:#800000;fill-opacity:1;fill-rule:nonzero;stroke:#800000;stroke-width:0.946806;stroke-linecap:butt;stroke-linejoin:miter;stroke-miterlimit:4;stroke-dasharray:none;stroke-opacity:1"
         id="path290" /></g><text
       xml:space="preserve"
       transform="matrix(0.9905925,0,0,1,228.44441,183.09885)"
       style="font-variant:normal;font-weight:normal;font-size:46.8924px;font-family:Higuen;-inkscape-font-specification:Higuen-Regular;writing-mode:lr-tb;fill:#800000;fill-opacity:1;fill-rule:nonzero;stroke:none"
       id="text294"><tspan
         x="0"
         y="0"
         id="tspan292">E</tspan></text><g
       id="g296"
       transform="scale(0.990593,1)"><path
         d="m 230.615,183.098 h 24.859 l 2.665,-8.438 h -0.378 c -1.735,4.313 -6.846,7.594 -11.436,7.594 h -8.249 v -12.797 c 1.782,-2.484 4.258,-1.219 6.561,-0.469 4.133,1.407 6.941,0.375 8.534,-4.265 l -0.379,-0.188 c -1.782,2.719 -4.353,1.406 -6.656,0.61 -3.754,-1.266 -6.42,-0.563 -8.06,3 v -16.282 h 8.533 c 3.801,0 8.25,2.625 9.701,6.235 h 0.426 l -1.972,-7.078 h -24.149 v 0.421 c 2.019,-0.093 2.997,1.266 2.997,6.235 v 18.812 c 0,4.969 -0.978,6.282 -2.997,6.188 z"
         style="fill:none;stroke:#800000;stroke-width:2.19808;stroke-linecap:butt;stroke-linejoin:miter;stroke-miterlimit:4;stroke-dasharray:none;stroke-opacity:1"
         id="path298" /></g><text
       xml:space="preserve"
       transform="matrix(0.9905925,0,0,1,255.89709,183.09885)"
       style="font-variant:normal;font-weight:normal;font-size:46.8924px;font-family:Higuen;-inkscape-font-specification:Higuen-Regular;writing-mode:lr-tb;fill:#800000;fill-opacity:1;fill-rule:nonzero;stroke:none"
       id="text302"><tspan
         x="0"
         y="0"
         id="tspan300">L</tspan></text><g
       id="g304"
       transform="scale(0.990593,1)"><path
         d="m 265.789,157.676 c 0,-4.969 0.978,-6.328 2.997,-6.235 v -0.421 h -10.457 v 0.421 c 2.019,-0.093 2.997,1.266 2.997,6.235 v 18.812 c 0,4.969 -0.978,6.282 -2.997,6.188 v 0.422 h 24.433 l 2.713,-8.438 h -0.41 c -1.736,4.313 -6.846,7.594 -11.452,7.594 h -7.824 z"
         style="fill:none;stroke:#800000;stroke-width:2.19808;stroke-linecap:butt;stroke-linejoin:miter;stroke-miterlimit:4;stroke-dasharray:none;stroke-opacity:1"
         id="path306" /></g><text
       xml:space="preserve"
       transform="matrix(0.9905925,0,0,1,297.79609,183.09885)"
       style="font-variant:normal;font-weight:normal;font-size:46.8924px;font-family:Higuen;-inkscape-font-specification:Higuen-Regular;writing-mode:lr-tb;fill:#800000;fill-opacity:1;fill-rule:nonzero;stroke:none"
       id="text310"><tspan
         x="0"
         y="0"
         id="tspan308">E</tspan></text><g
       id="g312"
       transform="scale(0.990593,1)"><path
         d="m 300.625,183.098 h 24.859 l 2.666,-8.438 h -0.379 c -1.735,4.313 -6.846,7.594 -11.436,7.594 h -8.249 v -12.797 c 1.782,-2.484 4.259,-1.219 6.562,-0.469 4.132,1.407 6.94,0.375 8.533,-4.265 l -0.379,-0.188 c -1.782,2.719 -4.353,1.406 -6.656,0.61 -3.754,-1.266 -6.42,-0.563 -8.06,3 v -16.282 h 8.533 c 3.802,0 8.25,2.625 9.701,6.235 h 0.426 l -1.972,-7.078 h -24.149 v 0.421 c 2.019,-0.093 2.997,1.266 2.997,6.235 v 18.812 c 0,4.969 -0.978,6.282 -2.997,6.188 z"
         style="fill:none;stroke:#800000;stroke-width:2.19808;stroke-linecap:butt;stroke-linejoin:miter;stroke-miterlimit:4;stroke-dasharray:none;stroke-opacity:1"
         id="path314" /></g><text
       xml:space="preserve"
       transform="matrix(0.9905925,0,0,1,327.33904,183.09885)"
       style="font-variant:normal;font-weight:normal;font-size:46.8924px;font-family:Higuen;-inkscape-font-specification:Higuen-Regular;writing-mode:lr-tb;fill:#800000;fill-opacity:1;fill-rule:nonzero;stroke:none"
       id="text318"><tspan
         x="0"
         y="0"
         id="tspan316">S</tspan></text><g
       id="g320"
       transform="scale(0.990593,1)"><path
         d="m 330.874,170.16 h -0.425 v 8.016 c 3.754,3.328 8.533,4.922 13.691,4.922 3.896,0 8.297,-1.078 10.6,-4.172 2.255,-3.094 2.161,-8.25 -0.474,-11.063 -3.975,-4.218 -11.956,-3.609 -17.019,-6.281 -3.281,-1.734 -3.849,-4.609 -1.499,-7.047 2.398,-2.39 5.821,-3 8.96,-2.484 4.022,0.656 6.751,3.281 9.89,7.844 l 1.735,-4.563 c -3.376,-2.766 -8.155,-4.312 -12.982,-4.312 -2.681,0 -5.347,0.562 -7.65,1.687 -2.492,1.266 -5.252,3.656 -5.252,6.938 0,3.343 3.044,5.312 5.583,6.39 4.164,1.781 9.228,1.922 13.171,3.75 2.35,1.078 4.369,3.422 4.227,6.235 -0.189,4.734 -5.441,6.187 -9.054,6.234 -6.23,0.047 -11.767,-4.875 -13.502,-12.094 z"
         style="fill:none;stroke:#800000;stroke-width:2.19808;stroke-linecap:butt;stroke-linejoin:miter;stroke-miterlimit:4;stroke-dasharray:none;stroke-opacity:1"
         id="path322" /></g><text
       xml:space="preserve"
       transform="matrix(0.9905925,0,0,1,356.04591,183.09885)"
       style="font-variant:normal;font-weight:normal;font-size:46.8924px;font-family:Higuen;-inkscape-font-specification:Higuen-Regular;writing-mode:lr-tb;fill:#800000;fill-opacity:1;fill-rule:nonzero;stroke:none"
       id="text326"><tspan
         x="0"
         y="0"
         id="tspan324">C</tspan></text><g
       id="g328"
       transform="scale(0.990593,1)"><path
         d="m 387.568,155.332 c -3.139,-2.719 -7.603,-4.312 -11.956,-4.312 -8.912,0 -16.184,7.031 -16.184,16.046 0,9.188 6.988,16.032 16.184,16.032 5.205,0 10.174,-2.391 12.934,-7.36 l -0.331,-0.234 c -1.783,2.484 -4.212,4.078 -6.988,4.734 -7.035,1.688 -14.149,-2.484 -16.594,-9.234 -2.255,-6.234 -1.451,-15.625 5.679,-18.203 4.921,-1.781 10.694,-0.188 15.521,7.094 z"
         style="fill:none;stroke:#800000;stroke-width:2.19808;stroke-linecap:butt;stroke-linejoin:miter;stroke-miterlimit:4;stroke-dasharray:none;stroke-opacity:1"
         id="path330" /></g><text
       xml:space="preserve"
       transform="matrix(0.9905925,0,0,1,386.23922,183.09885)"
       style="font-variant:normal;font-weight:normal;font-size:46.8924px;font-family:Higuen;-inkscape-font-specification:Higuen-Regular;writing-mode:lr-tb;fill:#800000;fill-opacity:1;fill-rule:nonzero;stroke:none"
       id="text334"><tspan
         x="0"
         y="0"
         id="tspan332">O</tspan></text><g
       id="g336"
       transform="scale(0.990593,1)"><path
         d="m 405.948,151.02 c 8.865,0 16.041,7.171 16.041,16.046 0,8.86 -7.176,16.032 -16.041,16.032 -8.865,0 -16.042,-7.172 -16.042,-16.032 0,-8.875 7.177,-16.046 16.042,-16.046 z m -5.158,1.781 c -6.01,2.156 -8.533,10.281 -5.678,18.203 2.855,7.875 9.984,12.516 15.994,10.359 5.946,-2.156 8.533,-10.312 5.678,-18.187 -2.871,-7.891 -10.047,-12.531 -15.994,-10.375 z"
         style="fill:none;stroke:#800000;stroke-width:2.19808;stroke-linecap:butt;stroke-linejoin:miter;stroke-miterlimit:4;stroke-dasharray:none;stroke-opacity:1"
         id="path338" /></g><text
       xml:space="preserve"
       transform="matrix(0.9905925,0,0,1,419.45187,183.09885)"
       style="font-variant:normal;font-weight:normal;font-size:46.8924px;font-family:Higuen;-inkscape-font-specification:Higuen-Regular;writing-mode:lr-tb;fill:#800000;fill-opacity:1;fill-rule:nonzero;stroke:none"
       id="text342"><tspan
         x="0"
         y="0"
         id="tspan340">B</tspan></text><g
       id="g344"
       transform="scale(0.990593,1)"><path
         d="m 423.437,183.098 h 17.492 c 5.253,0 8.818,-3.328 8.818,-8.625 0,-5.25 -3.565,-8.625 -8.25,-8.766 3.88,-1.687 7.824,-3.937 7.824,-8.687 0,-4.594 -4.59,-6 -8.392,-6 h -17.492 v 0.421 c 2.019,-0.093 2.997,1.266 2.997,6.235 v 18.812 c 0,4.969 -0.978,6.282 -2.997,6.188 z m 7.46,-11.297 c 1.357,-1.641 3.707,-3.281 5.71,-3.985 3.991,-1.406 7.698,0.657 8.502,4.969 0.836,4.266 -1.561,9.469 -6.909,9.469 h -7.303 z m 0,-19.938 h 6.515 c 3.281,0 7.413,0.985 7.413,4.969 0,3.25 -2.208,5.406 -4.653,7.188 -3.044,2.203 -6.845,4.078 -9.275,6.515 z"
         style="fill:none;stroke:#800000;stroke-width:2.19808;stroke-linecap:butt;stroke-linejoin:miter;stroke-miterlimit:4;stroke-dasharray:none;stroke-opacity:1"
         id="path346" /></g><text
       xml:space="preserve"
       transform="matrix(0.9905925,0,0,1,445.69685,183.09885)"
       style="font-variant:normal;font-weight:normal;font-size:46.8924px;font-family:Higuen;-inkscape-font-specification:Higuen-Regular;writing-mode:lr-tb;fill:#800000;fill-opacity:1;fill-rule:nonzero;stroke:none"
       id="text350"><tspan
         x="0"
         y="0"
         id="tspan348">A</tspan></text><g
       id="g352"
       transform="scale(0.990593,1)"><path
         d="m 467.941,151.02 h -4.748 l -10.41,29.64 c -0.457,1.313 -1.357,2.11 -2.855,2.063 v 0.375 c 2.208,0 5.631,0 7.918,0 v -0.375 c -1.498,0.047 -2.382,-0.328 -2.855,-1.688 -0.094,-0.328 -0.236,-0.703 -0.331,-1.031 -0.284,-0.797 -0.237,-1.5 0,-2.297 l 0.994,-2.625 c 1.025,-2.953 4.826,-1.359 6.656,-0.703 3.754,1.219 6.42,0.516 8.06,-2.953 l 3.187,9.047 c 0.52,1.593 -0.221,2.297 -1.83,2.25 v 0.375 h 9.48 v -0.375 c -1.688,0.047 -2.493,-0.797 -2.95,-2.25 z m 2.145,19.468 c -1.735,1.875 -4.116,0.703 -6.277,0 -3.092,-1.031 -5.442,-0.703 -7.083,1.407 l 6.941,-19.657 z"
         style="fill:none;stroke:#800000;stroke-width:2.19808;stroke-linecap:butt;stroke-linejoin:miter;stroke-miterlimit:4;stroke-dasharray:none;stroke-opacity:1"
         id="path354" /></g><text
       xml:space="preserve"
       transform="matrix(0.9905925,0,0,1,478.07341,183.09885)"
       style="font-variant:normal;font-weight:normal;font-size:46.8924px;font-family:Higuen;-inkscape-font-specification:Higuen-Regular;writing-mode:lr-tb;fill:#800000;fill-opacity:1;fill-rule:nonzero;stroke:none"
       id="text358"><tspan
         x="0"
         y="0"
         id="tspan356">R</tspan></text><g
       id="g360"
       transform="scale(0.990593,1)"><path
         d="m 490.075,176.488 v -6.187 c 0.978,-1.125 2.95,-2.766 4.732,-3.61 2.855,-1.359 4.354,-0.14 5.347,2.672 1.168,3.188 2.067,7.735 3.754,10.828 0.884,1.688 2.24,2.907 4.543,2.907 1.357,0 2.729,-0.563 3.376,-1.922 l -0.332,-0.281 c -0.93,0.796 -2.003,0.187 -2.665,-0.563 -1.688,-1.828 -3.612,-9.094 -4.496,-11.719 -0.709,-2.062 -2.208,-3.422 -4.889,-3.703 4.416,-1.547 9.054,-3.234 9.054,-7.89 0,-4.594 -4.591,-6 -8.392,-6 h -17.493 v 0.421 c 2.019,-0.093 2.997,1.266 2.997,6.235 v 18.812 c 0,4.969 -0.978,6.282 -2.997,6.188 v 0.422 h 10.458 v -0.422 c -2.019,0.094 -2.997,-1.219 -2.997,-6.188 z m 0,-24.625 h 6.515 c 3.28,0 7.46,0.797 7.413,4.969 0,4.234 -6.53,6.953 -9.574,8.969 -1.641,1.031 -3.139,2.062 -4.354,3.281 z"
         style="fill:none;stroke:#800000;stroke-width:2.19808;stroke-linecap:butt;stroke-linejoin:miter;stroke-miterlimit:4;stroke-dasharray:none;stroke-opacity:1"
         id="path362" /></g><text
       xml:space="preserve"
       transform="matrix(1,0,0,0.70292867,293.82569,201.55388)"
       style="font-variant:normal;font-weight:normal;font-size:26.3771px;font-family:Higuen;-inkscape-font-specification:Higuen-Regular;writing-mode:lr-tb;fill:#800000;fill-opacity:1;fill-rule:nonzero;stroke:none"
       id="text366"><tspan
         x="0"
         y="0"
         id="tspan364">C</tspan></text><g
       id="g368"
       transform="scale(1,0.702929)"><path
         d="m 309.652,271.109 c -1.765,-1.534 -4.281,-2.423 -6.734,-2.423 -5,0 -9.094,3.957 -9.094,9.025 0,5.179 3.938,9.025 9.094,9.025 2.937,0 5.734,-1.356 7.281,-4.135 l -0.187,-0.133 c -1,1.4 -2.36,2.289 -3.922,2.667 -3.953,0.934 -7.969,-1.4 -9.344,-5.201 -1.266,-3.512 -0.812,-8.803 3.203,-10.248 2.766,-1 6,-0.111 8.719,3.979 z"
         style="fill:none;stroke:#800000;stroke-width:1.23643;stroke-linecap:butt;stroke-linejoin:miter;stroke-miterlimit:4;stroke-dasharray:none;stroke-opacity:1"
         id="path370" /></g><text
       xml:space="preserve"
       transform="matrix(1,0,0,0.70292867,310.97078,201.55388)"
       style="font-variant:normal;font-weight:normal;font-size:26.3771px;font-family:Higuen;-inkscape-font-specification:Higuen-Regular;writing-mode:lr-tb;fill:#800000;fill-opacity:1;fill-rule:nonzero;stroke:none"
       id="text374"><tspan
         x="0"
         y="0"
         id="tspan372">o</tspan></text><g
       id="g376"
       transform="scale(1,0.702929)"><path
         d="m 318.488,272.398 c 3.953,0 7.172,3.223 7.172,7.18 0,3.957 -3.219,7.158 -7.172,7.158 -3.953,0 -7.14,-3.201 -7.14,-7.158 0,-3.957 3.187,-7.18 7.14,-7.18 z m -2.218,0.889 c -2.5,0.867 -3.532,4.402 -2.297,7.892 1.25,3.467 4.25,5.579 6.765,4.712 2.469,-0.889 3.5,-4.424 2.282,-7.913 -1.235,-3.49 -4.235,-5.602 -6.75,-4.691 z"
         style="fill:none;stroke:#800000;stroke-width:1.23643;stroke-linecap:butt;stroke-linejoin:miter;stroke-miterlimit:4;stroke-dasharray:none;stroke-opacity:1"
         id="path378" /></g><text
       xml:space="preserve"
       transform="matrix(1,0,0,0.70292867,326.92891,201.55388)"
       style="font-variant:normal;font-weight:normal;font-size:26.3771px;font-family:Higuen;-inkscape-font-specification:Higuen-Regular;writing-mode:lr-tb;fill:#800000;fill-opacity:1;fill-rule:nonzero;stroke:none"
       id="text382"><tspan
         x="0"
         y="0"
         id="tspan380">s</tspan></text><g
       id="g384"
       transform="scale(1,0.702929)"><path
         d="m 327.539,280.956 h -0.234 v 3.579 c 1.734,1.489 3.953,2.201 6.375,2.201 1.797,0 3.859,-0.467 4.906,-1.868 1.062,-1.378 1,-3.689 -0.203,-4.934 -1.86,-1.89 -5.578,-1.645 -7.922,-2.823 -1.969,-1.001 -1.297,-2.757 0.141,-3.601 0.921,-0.578 2.39,-0.712 3.421,-0.6 2.266,0.222 3.516,1.844 4.094,2.911 l 0.844,-2.222 c -1.453,-0.778 -3.359,-1.201 -5.25,-1.201 -1.063,0 -2.094,0.134 -3.031,0.423 -1.485,0.489 -3.375,1.689 -3.375,3.489 0,1.957 1.5,2.779 2.968,3.313 2.094,0.733 4.672,0.911 6.25,1.778 1.141,0.667 1.61,1.756 1.25,2.778 -0.578,1.601 -2.531,2.045 -4.015,2.09 -2.891,0.022 -5.485,-2.445 -6.219,-5.313 z"
         style="fill:none;stroke:#800000;stroke-width:1.23643;stroke-linecap:butt;stroke-linejoin:miter;stroke-miterlimit:4;stroke-dasharray:none;stroke-opacity:1"
         id="path386" /></g><text
       xml:space="preserve"
       transform="matrix(1,0,0,0.70292867,340.434,201.55388)"
       style="font-variant:normal;font-weight:normal;font-size:26.3771px;font-family:Higuen;-inkscape-font-specification:Higuen-Regular;writing-mode:lr-tb;fill:#800000;fill-opacity:1;fill-rule:nonzero;stroke:none"
       id="text390"><tspan
         x="0"
         y="0"
         id="tspan388">e</tspan></text><g
       id="g392"
       transform="scale(1,0.702929)"><path
         d="m 347.949,272.398 c -3.922,0 -7.14,3.223 -7.14,7.18 0,3.957 3.218,7.158 7.14,7.158 3.375,0 6.172,-2.312 6.969,-5.446 h -0.234 c -0.907,2.6 -2.907,4.134 -5.016,4.356 -3.375,0.378 -5.813,-2.445 -6.516,-5.446 -0.156,-0.666 -0.218,-1.311 -0.234,-1.933 3.578,0 7.281,0 10.859,0 0.032,-2.823 -2.156,-5.869 -5.828,-5.869 z m 3.453,5.402 h -8.468 c 0.109,-2.156 1.14,-3.935 2.796,-4.513 2.375,-0.844 5.313,0.912 5.672,4.513 z"
         style="fill:none;stroke:#800000;stroke-width:1.23643;stroke-linecap:butt;stroke-linejoin:miter;stroke-miterlimit:4;stroke-dasharray:none;stroke-opacity:1"
         id="path394" /></g><text
       xml:space="preserve"
       transform="matrix(1,0,0,0.70292867,355.81185,201.55388)"
       style="font-variant:normal;font-weight:normal;font-size:26.3771px;font-family:Higuen;-inkscape-font-specification:Higuen-Regular;writing-mode:lr-tb;fill:#800000;fill-opacity:1;fill-rule:nonzero;stroke:none"
       id="text398"><tspan
         x="0"
         y="0"
         id="tspan396">c</tspan></text><g
       id="g400"
       transform="scale(1,0.702929)"><path
         d="m 368.281,273.599 c -1.547,-0.801 -3.187,-1.201 -4.765,-1.201 -3.907,0 -7.313,3.223 -7.313,7.18 0,2.201 1,4.179 2.563,5.468 1.234,1.067 2.843,1.69 4.593,1.69 3.375,0 6.172,-2.312 6.954,-5.446 h -0.235 c -0.89,2.6 -2.89,4.134 -5.015,4.356 -3.375,0.378 -5.797,-2.445 -6.5,-5.446 -0.75,-3.156 0.312,-6.135 2.578,-6.913 2.234,-0.8 4.265,0.067 6.25,2.423 z"
         style="fill:none;stroke:#800000;stroke-width:1.23643;stroke-linecap:butt;stroke-linejoin:miter;stroke-miterlimit:4;stroke-dasharray:none;stroke-opacity:1"
         id="path402" /></g><text
       xml:space="preserve"
       transform="matrix(1,0,0,0.70292867,370.29287,201.55388)"
       style="font-variant:normal;font-weight:normal;font-size:26.3771px;font-family:Higuen;-inkscape-font-specification:Higuen-Regular;writing-mode:lr-tb;fill:#800000;fill-opacity:1;fill-rule:nonzero;stroke:none"
       id="text406"><tspan
         x="0"
         y="0"
         id="tspan404">h</tspan></text><g
       id="g408"
       transform="scale(1,0.702929)"><path
         d="m 386.746,285.646 -0.187,-0.155 c -0.657,0.533 -1.36,-0.045 -1.704,-0.556 -1.14,-1.689 -1.406,-4.735 -1.984,-7.424 -0.422,-2.156 -0.891,-5.113 -3.75,-5.113 -2.047,0 -3.578,1.601 -4.766,3.179 v -8.625 c -0.718,1.023 -2.5,1.734 -4.062,1.734 v 0.245 c 1.141,-0.067 1.687,0.689 1.687,3.467 v 10.625 c 0,2.779 -0.546,3.535 -1.687,3.468 v 0.245 h 5.75 v -0.245 c -1.141,0.067 -1.688,-0.689 -1.688,-3.468 v -6.601 c 0.344,-0.512 0.797,-1.067 1.297,-1.534 1.891,-1.867 3.641,-1.823 4.422,0.978 0.688,2.378 0.844,5.846 1.75,8.247 0.516,1.445 1.313,2.623 3,2.623 0.766,0 1.531,-0.312 1.922,-1.09 z"
         style="fill:none;stroke:#800000;stroke-width:1.23643;stroke-linecap:butt;stroke-linejoin:miter;stroke-miterlimit:4;stroke-dasharray:none;stroke-opacity:1"
         id="path410" /></g><text
       xml:space="preserve"
       transform="matrix(1,0,0,0.70292867,386.80491,201.55388)"
       style="font-variant:normal;font-weight:normal;font-size:26.3771px;font-family:Higuen;-inkscape-font-specification:Higuen-Regular;writing-mode:lr-tb;fill:#800000;fill-opacity:1;fill-rule:nonzero;stroke:none"
       id="text414"><tspan
         x="0"
         y="0"
         id="tspan412">a</tspan></text><g
       id="g416"
       transform="scale(1,0.702929)"><path
         d="m 401.805,285.646 -0.172,-0.155 c -0.641,0.533 -1.375,-0.045 -1.688,-0.556 -1.14,-1.689 -1.406,-4.735 -1.984,-7.424 -0.719,-3.49 -1.656,-5.113 -5.563,-5.113 -2.031,0 -4.015,0.467 -5.562,1.201 l 0.844,2.222 c 0.578,-0.8 1.812,-2.045 3.062,-2.6 1.969,-0.889 3.735,0.266 2.61,2.489 -1.297,2.601 -6.313,3.357 -6.547,7.269 -0.125,2.467 1.64,3.757 3.937,3.757 3.735,0 5.078,-2.957 5.313,-6.091 0.218,1.245 0.484,2.445 0.859,3.468 0.516,1.445 1.281,2.623 3,2.623 0.766,0 1.5,-0.312 1.891,-1.09 z m -6.422,-8.891 c 0.422,1.756 0.344,4.179 -0.266,5.891 -0.578,1.667 -2.219,3.245 -4.172,2.778 -1.5,-0.378 -1.922,-1.756 -1.656,-3.045 0.547,-2.534 3.391,-3.446 4.531,-5.491 0.422,-0.733 0.657,-1.778 0.453,-2.667 0.516,0.689 0.86,1.6 1.11,2.534 z"
         style="fill:none;stroke:#800000;stroke-width:1.23643;stroke-linecap:butt;stroke-linejoin:miter;stroke-miterlimit:4;stroke-dasharray:none;stroke-opacity:1"
         id="path418" /></g><text
       xml:space="preserve"
       transform="matrix(1,0,0,0.70292867,410.14865,201.55388)"
       style="font-variant:normal;font-weight:normal;font-size:26.3771px;font-family:Higuen;-inkscape-font-specification:Higuen-Regular;writing-mode:lr-tb;fill:#800000;fill-opacity:1;fill-rule:nonzero;stroke:none"
       id="text422"><tspan
         x="0"
         y="0"
         id="tspan420">2</tspan></text><g
       id="g424"
       transform="scale(1,0.702929)"><path
         d="m 411.648,284.224 c 1.297,-1.734 3.61,-2.845 5.469,-3.979 2.844,-1.712 5.906,-3.957 5.906,-7.38 0,-3.112 -3.093,-4.179 -5.734,-4.179 -2.687,0 -5.484,0.978 -7.141,2.423 l 0.969,2.556 c 1.672,-2.6 3.985,-4.512 6.094,-4.512 4.094,0 3.859,5.157 2.062,7.691 -1.687,2.401 -4.765,3.801 -6.968,5.935 -1.125,1.111 -2,2.423 -2.157,3.957 h 11.813 l 1.062,-3.29 h -0.234 c -0.25,0.556 -0.828,0.778 -1.594,0.778 z"
         style="fill:none;stroke:#800000;stroke-width:1.23643;stroke-linecap:butt;stroke-linejoin:miter;stroke-miterlimit:4;stroke-dasharray:none;stroke-opacity:1"
         id="path426" /></g><text
       xml:space="preserve"
       transform="matrix(1,0,0,0.70292867,424.15487,201.55388)"
       style="font-variant:normal;font-weight:normal;font-size:26.3771px;font-family:Higuen;-inkscape-font-specification:Higuen-Regular;writing-mode:lr-tb;fill:#800000;fill-opacity:1;fill-rule:nonzero;stroke:none"
       id="text430"><tspan
         x="0"
         y="0"
         id="tspan428">0</tspan></text><g
       id="g432"
       transform="scale(1,0.702929)"><path
         d="m 430.563,268.686 c -3.5,0 -6.407,4.046 -6.407,9.047 0,4.957 2.907,9.003 6.407,9.003 3.562,0 6.468,-4.046 6.468,-9.003 0,-5.001 -2.906,-9.047 -6.468,-9.047 z m 0,0.467 c 2.171,0 3.937,3.868 3.937,8.58 0,4.713 -1.766,8.558 -3.937,8.558 -2.157,0 -3.907,-3.845 -3.907,-8.558 0,-4.712 1.75,-8.58 3.907,-8.58 z"
         style="fill:none;stroke:#800000;stroke-width:1.23643;stroke-linecap:butt;stroke-linejoin:miter;stroke-miterlimit:4;stroke-dasharray:none;stroke-opacity:1"
         id="path434" /></g><text
       xml:space="preserve"
       transform="matrix(1,0,0,0.70292867,437.55441,201.55388)"
       style="font-variant:normal;font-weight:normal;font-size:26.3771px;font-family:Higuen;-inkscape-font-specification:Higuen-Regular;writing-mode:lr-tb;fill:#800000;fill-opacity:1;fill-rule:nonzero;stroke:none"
       id="text438"><tspan
         x="0"
         y="0"
         id="tspan436">2</tspan></text><g
       id="g440"
       transform="scale(1,0.702929)"><path
         d="m 439.055,284.224 c 1.297,-1.734 3.609,-2.845 5.468,-3.979 2.844,-1.712 5.907,-3.957 5.907,-7.38 0,-3.112 -3.094,-4.179 -5.735,-4.179 -2.687,0 -5.484,0.978 -7.14,2.423 l 0.968,2.556 c 1.672,-2.6 3.985,-4.512 6.094,-4.512 4.094,0 3.86,5.157 2.063,7.691 -1.688,2.401 -4.766,3.801 -6.969,5.935 -1.125,1.111 -2,2.423 -2.156,3.957 h 11.812 l 1.063,-3.29 h -0.235 c -0.25,0.556 -0.828,0.778 -1.593,0.778 z"
         style="fill:none;stroke:#800000;stroke-width:1.23643;stroke-linecap:butt;stroke-linejoin:miter;stroke-miterlimit:4;stroke-dasharray:none;stroke-opacity:1"
         id="path442" /></g><text
       xml:space="preserve"
       transform="matrix(1,0,0,0.70292867,451.66615,201.55388)"
       style="font-variant:normal;font-weight:normal;font-size:26.3771px;font-family:Higuen;-inkscape-font-specification:Higuen-Regular;writing-mode:lr-tb;fill:#800000;fill-opacity:1;fill-rule:nonzero;stroke:none"
       id="text446"><tspan
         x="0"
         y="0"
         id="tspan444">3</tspan></text><g
       id="g448"
       transform="scale(1,0.702929)"><path
         d="m 451.668,284.313 c 1.656,1.445 4.453,2.423 7.141,2.423 3.781,0 5.734,-2.512 5.734,-4.98 0,-1.978 -1.219,-4.045 -4.719,-4.579 1.313,-0.422 4.656,-1.2 4.719,-4.312 0.016,-2.178 -1.844,-4.179 -5.734,-4.179 -2.688,0 -5.485,0.978 -7.141,2.423 l 0.969,2.556 c 1.672,-2.6 3.984,-4.512 6.093,-4.512 2.188,0 3.297,1.467 3.297,3.356 0,2.112 -1.656,3.824 -3.39,4.935 2.265,0.689 3.89,2.668 3.39,4.957 -0.468,2.201 -2.812,4.001 -5.984,3.401 -1.5,-0.289 -2.953,-0.911 -4.141,-1.845 z"
         style="fill:none;stroke:#800000;stroke-width:1.23643;stroke-linecap:butt;stroke-linejoin:miter;stroke-miterlimit:4;stroke-dasharray:none;stroke-opacity:1"
         id="path450" /></g></g></svg>
